<?xml version="1.0" encoding="UTF-8" standalone="no"?>
<!-- Created with Inkscape (http://www.inkscape.org/) -->

<svg
   version="1.1"
   id="svg1"
   width="691.69366"
   height="696.20715"
   viewBox="0 0 691.69365 696.20717"
   sodipodi:docname="logo.svg"
   inkscape:version="1.4.2 (f4327f4, 2025-05-13)"
   xmlns:inkscape="http://www.inkscape.org/namespaces/inkscape"
   xmlns:sodipodi="http://sodipodi.sourceforge.net/DTD/sodipodi-0.dtd"
   xmlns="http://www.w3.org/2000/svg"
   xmlns:svg="http://www.w3.org/2000/svg">
  <defs
     id="defs1" />
  <sodipodi:namedview
     id="namedview1"
     pagecolor="#ffffff"
     bordercolor="#999999"
     borderopacity="1"
     inkscape:showpageshadow="2"
     inkscape:pageopacity="0"
     inkscape:pagecheckerboard="true"
     inkscape:deskcolor="#d1d1d1"
     inkscape:zoom="0.88623047"
     inkscape:cx="298.4551"
     inkscape:cy="478.43085"
     inkscape:window-width="3840"
     inkscape:window-height="2054"
     inkscape:window-x="2869"
     inkscape:window-y="-11"
     inkscape:window-maximized="1"
     inkscape:current-layer="g1" />
  <g
     inkscape:groupmode="layer"
     inkscape:label="Image"
     id="g1"
     transform="translate(-149.4043,-167.79486)">
    <rect
       style="fill:#1c1c23;fill-opacity:1"
       id="rect1"
       width="691.69366"
       height="696.20715"
       x="149.4043"
       y="167.79486"
       rx="200"
       ry="200" />
    <path
       style="fill:#ffcc00"
       d="m 297.17144,485.52675 c -32.69116,-5.62432 -54.43696,-37.67667 -47.56305,-70.10584 2.58924,-12.21529 10.98333,-25.54561 21.75081,-34.54159 14.56353,-12.16749 38.52694,-15.7637 57.06788,-8.56423 7.97915,3.09832 18.01432,9.68304 23.42975,15.37377 4.53899,4.76975 9.86188,14.0119 12.51048,21.72201 2.73172,7.95205 3.18557,24.4979 0.89492,32.62532 -8.37807,29.72603 -38.02655,48.66294 -68.09079,43.49056 z"
       id="path8" />
    <path
       style="fill:#ff6600"
       d="m 573.17144,365.90094 c -14.14055,-2.68158 -30.05255,-12.16074 -40.19786,-23.94684 -10.92989,-12.69757 -16.39053,-29.29143 -15.55683,-47.27436 1.34724,-29.06036 19.82733,-52.31078 49.25469,-61.969 3.66998,-1.20451 8.72405,-1.64166 19,-1.64341 12.87278,-0.002 14.63532,0.22665 21.89068,2.84214 28.78818,10.37785 46.6403,35.13109 46.59454,64.60662 -0.0186,11.94958 -1.88821,19.95967 -7.21516,30.91156 -3.31306,6.81147 -5.86584,10.28874 -12.2286,16.65721 -8.80145,8.80936 -15.56291,13.14758 -26.73542,17.15373 -6.16102,2.20917 -9.26506,2.66023 -19.80604,2.87809 -6.875,0.1421 -13.625,0.045 -15,-0.21574 z"
       id="path281" />
    <path
       style="fill:#0066ff"
       d="m 267.52649,345.55979 c -11.03203,-2.35133 -23.32028,-12.09813 -27.7792,-22.03393 -4.23019,-9.42613 -5.17406,-17.20323 -3.17718,-26.17883 2.80988,-12.62987 11.35052,-22.97334 23.58442,-28.56282 7.47104,-3.4134 20.48209,-4.22608 28.1565,-1.75867 19.08771,6.13691 30.64536,24.8415 27.79339,44.98005 -1.82659,12.89804 -10.3939,24.19836 -23.05141,30.4049 -7.05576,3.45975 -17.83209,4.78926 -25.52652,3.1493 z"
       id="path6" />
    <path
       style="fill:#e01f56"
       d="m 713.17144,347.92283 c -2.6373,-0.49564 -3.57097,-0.86067 -11.38433,-4.45081 -5.01806,-2.30575 -15.61567,-11.83532 -15.61567,-14.04192 0,-0.68004 -0.68139,-1.98936 -1.5142,-2.90961 -2.26404,-2.50172 -4.4858,-12.22383 -4.4858,-19.62918 0,-7.24044 2.29501,-16.52514 4.54661,-18.3938 0.79936,-0.66342 1.45339,-1.7277 1.45339,-2.36507 0,-2.07328 11.38036,-12.28133 16,-14.35181 8.72747,-3.91156 10.17159,-4.24444 18.4137,-4.24444 8.67561,0 14.91346,1.81029 22.5863,6.55479 4.49311,2.77831 11.03177,9.9567 13.15787,14.44521 4.71411,9.95217 5.10141,11.6937 4.65891,20.94912 -0.2442,5.10747 -0.95396,9.58806 -1.62516,10.25926 -0.65539,0.65539 -1.19162,1.98164 -1.19162,2.94721 0,0.96558 -1.14774,3.46308 -2.55053,5.55 -8.2375,12.25486 -19.45187,19.11022 -32.33116,19.7641 -4.19007,0.21273 -8.74331,0.17536 -10.11831,-0.0831 z"
       id="path248" />
    <path
       style="fill:#ab37c8"
       d="m 685.57355,486.591 c -14.48779,-2.27156 -29.52889,-10.74392 -38.6875,-21.79193 -7.4124,-8.94156 -13.64832,-25.64123 -13.69725,-36.68097 -0.0484,-10.91451 4.10992,-23.88392 10.98753,-34.26936 10.79967,-16.3079 33.42032,-27.47478 52.54323,-25.93844 43.29148,3.47806 68.88181,47.65745 50.17689,86.62589 -4.04523,8.42752 -16.98729,21.58922 -25.40956,25.84076 -11.06209,5.58413 -24.78587,7.95874 -35.91334,6.21405 z"
       id="path197" />
    <path
       style="fill:#00aa44"
       d="m 403.17144,366.10291 c -21.47081,-3.86896 -39.94306,-17.44645 -49.06894,-36.06672 -5.45961,-11.13967 -7.26587,-18.95279 -7.28225,-31.5 -0.0256,-19.62497 5.69213,-33.31797 19.85119,-47.54006 14.48824,-14.55274 28.58124,-20.59005 48.5,-20.77696 11.4383,-0.10733 17.81224,1.30841 28.81492,6.40018 10.66733,4.93659 19.80785,12.24394 26.04905,20.82482 6.11145,8.40247 8.32958,12.70625 10.97786,21.30002 7.70266,24.99542 0.1716,51.55629 -19.8828,70.1236 -15.70206,14.53769 -37.29494,20.95871 -57.95903,17.23512 z"
       id="path25" />
    <path
       style="fill:#ffffff"
       d="m 522.67144,643.55663 c 26.00812,-6.63451 48.26916,-24.6945 60.55279,-49.12543 11.84357,-23.55569 12.34748,-52.43137 1.33855,-76.70285 -19.80433,-43.66277 -67.26214,-64.75771 -112.84076,-50.15758 -27.69336,8.87097 -49.797,31.71274 -58.99534,60.96542 -5.04834,16.05479 -4.63335,38.59968 1.01628,55.21027 11.24083,33.04941 38.9035,55.88401 74.92848,61.85092 7.71537,1.27792 25.075,0.23596 34,-2.04075 z"
       id="path11" />
    <path
       style="fill:#ffffff"
       d="m 614.17144,794.76292 0.5,-17.27328 13.5,-6.72672 c 57.24985,-28.52623 101.84851,-70.24101 126.48502,-118.30613 15.26572,-29.78298 22.38972,-56.67544 25.54247,-96.4206 1.79101,-22.57827 -0.35121,-30.71639 -10.21169,-38.79351 -7.9012,-6.47219 -28.79238,-15.48347 -32.88471,-14.18462 -1.13765,0.36108 -2.05004,1.83283 -2.34614,3.78449 -3.13996,20.69621 -5.11848,31.3402 -7.16798,38.56227 -11.6176,40.93825 -32.73849,72.52535 -63.93611,95.61889 -26.99164,19.98013 -56.09725,30.36459 -93.98086,33.53102 -22.05608,1.84351 -138.71865,0.80036 -152.38013,-1.36254 -42.39181,-6.71149 -74.27364,-23.13875 -102.77455,-52.95508 -25.16767,-26.32924 -40.80347,-61.16166 -46.83334,-104.33222 -1.85272,-13.26449 -2.37848,-13.8456 -10.30848,-11.39374 -19.56114,6.04806 -31.83819,14.68846 -34.73609,24.44673 -2.71515,9.14289 -1.26054,38.68304 3.08147,62.57831 5.75418,31.66688 20.10644,64.94573 39.23471,90.97423 8.5779,11.67225 14.61959,18.60275 26.63203,30.54997 25.37012,25.23239 49.20782,41.61039 91.08438,62.58072 3.30571,1.65538 5.03454,3.16311 5.10194,4.44945 0.0561,1.0701 0.16857,8.81006 0.25,17.19992 l 0.14806,15.25429 112.75,-0.25429 112.75,-0.25429 z"
       id="path10" />
  </g>
</svg>
